<svg xmlns="http://www.w3.org/2000/svg" width="51.314" height="55.649" viewBox="0 0 51.314 55.649">
  <g id="Group_37" data-name="Group 37" transform="translate(-1158.973 -176.884)">
    <path id="Path_38" data-name="Path 38" d="M23.474,58.3s6.473-11.48,7.611-14.026c1.454-3.251,1.426-5.93-.427-8.638a8.07,8.07,0,0,0-1.53-1.656,8.978,8.978,0,0,0-11.308,0,8.07,8.07,0,0,0-1.53,1.656c-1.854,2.709-1.882,5.388-.427,8.638C17,46.821,23.474,58.3,23.474,58.3Z" transform="translate(1161.157 146.907)" fill="none" stroke="#e6c46c" stroke-linecap="round" stroke-linejoin="round" stroke-width="4"/>
    <path id="Path_39" data-name="Path 39" d="M21.908,56.827s13.163-.658,15.924-1.055c3.524-.506,5.775-1.961,7.075-4.974a8,8,0,0,0,.581-2.179,8.974,8.974,0,0,0-6.037-9.559,8.06,8.06,0,0,0-2.216-.412c-3.28-.12-5.561,1.287-7.532,4.252C28.158,45.224,21.908,56.827,21.908,56.827Z" transform="translate(1162.722 148.381)" fill="none" stroke="#e6c46c" stroke-linecap="round" stroke-linejoin="round" stroke-width="4"/>
    <path id="Path_40" data-name="Path 40" d="M26.191,56.827s-13.163-.658-15.924-1.055c-3.524-.506-5.775-1.961-7.075-4.974A8,8,0,0,1,2.61,48.62a8.974,8.974,0,0,1,6.037-9.559,8.06,8.06,0,0,1,2.216-.412c3.28-.12,5.561,1.287,7.532,4.252C19.941,45.224,26.191,56.827,26.191,56.827Z" transform="translate(1158.439 148.381)" fill="none" stroke="#e6c46c" stroke-linecap="round" stroke-linejoin="round" stroke-width="4"/>
    <path id="Path_41" data-name="Path 41" d="M23.474,53.534s6.473,11.48,7.611,14.026c1.454,3.251,1.426,5.93-.427,8.638a8.07,8.07,0,0,1-1.53,1.656,8.978,8.978,0,0,1-11.308,0,8.07,8.07,0,0,1-1.53-1.656c-1.854-2.709-1.882-5.388-.427-8.638C17,65.014,23.474,53.534,23.474,53.534Z" transform="translate(1161.157 150.674)" fill="none" stroke="#e6c46c" stroke-linecap="round" stroke-linejoin="round" stroke-width="4"/>
    <path id="Path_42" data-name="Path 42" d="M21.908,53.534s13.163.658,15.924,1.055c3.524.506,5.775,1.961,7.075,4.974a8,8,0,0,1,.581,2.179A8.974,8.974,0,0,1,39.451,71.3a8.059,8.059,0,0,1-2.216.412c-3.28.12-5.561-1.287-7.532-4.252C28.158,65.137,21.908,53.534,21.908,53.534Z" transform="translate(1162.722 150.674)" fill="none" stroke="#e6c46c" stroke-linecap="round" stroke-linejoin="round" stroke-width="4"/>
    <path id="Path_43" data-name="Path 43" d="M26.191,53.534s-13.163.658-15.924,1.055c-3.524.506-5.775,1.961-7.075,4.974a8,8,0,0,0-.581,2.179A8.974,8.974,0,0,0,8.648,71.3a8.059,8.059,0,0,0,2.216.412c3.28.12,5.561-1.287,7.532-4.252C19.941,65.137,26.191,53.534,26.191,53.534Z" transform="translate(1158.439 150.674)" fill="none" stroke="#e6c46c" stroke-linecap="round" stroke-linejoin="round" stroke-width="4"/>
  </g>
</svg>
