<svg xmlns="http://www.w3.org/2000/svg" width="50.851" height="56.595" viewBox="0 0 50.851 56.595">
  <g id="Group_12" data-name="Group 12" transform="translate(-1086.746 -1253.892)">
    <path id="Path_10" data-name="Path 10" d="M73.351,63.155V42.288a5.355,5.355,0,0,0-2.677-4.637L52.6,27.217a5.355,5.355,0,0,0-5.355,0L29.177,37.651A5.355,5.355,0,0,0,26.5,42.288V63.155a5.355,5.355,0,0,0,2.677,4.637L47.248,78.225a5.355,5.355,0,0,0,5.355,0L70.674,67.792A5.355,5.355,0,0,0,73.351,63.155Z" transform="translate(1062.246 1229.468)" fill="none" stroke="#e6c46c" stroke-width="4"/>
    <path id="Path_16" data-name="Path 16" d="M47.746,43.122V33.66a2.428,2.428,0,0,0-1.214-2.1l-8.195-4.731a2.428,2.428,0,0,0-2.428,0l-8.195,4.731a2.428,2.428,0,0,0-1.214,2.1v9.463a2.428,2.428,0,0,0,1.214,2.1l8.195,4.731a2.428,2.428,0,0,0,2.428,0l8.195-4.731A2.428,2.428,0,0,0,47.746,43.122Z" transform="translate(1075.049 1243.799)" fill="none" stroke="#e6c46c" stroke-width="4"/>
  </g>
</svg>
