<svg xmlns="http://www.w3.org/2000/svg" width="30" height="30" viewBox="0 0 30 30" fill="none">
  <path d="M15 2.703c4.005 0 4.48.015 6.062.088 1.462.067 2.256.31 2.784.516a4.635 4.635 0 011.675 1.09 4.635 4.635 0 011.09 1.675c.206.528.449 1.322.516 2.784.073 1.582.088 2.057.088 6.062s-.015 4.48-.088 6.062c-.067 1.462-.31 2.256-.516 2.784a4.635 4.635 0 01-1.09 1.675 4.635 4.635 0 01-1.675 1.09c-.528.206-1.322.449-2.784.516-1.582.073-2.057.088-6.062.088s-4.48-.015-6.062-.088c-1.462-.067-2.256-.31-2.784-.516a4.635 4.635 0 01-1.675-1.09 4.635 4.635 0 01-1.09-1.675c-.206-.528-.449-1.322-.516-2.784-.073-1.582-.088-2.057-.088-6.062s.015-4.48.088-6.062c.067-1.462.31-2.256.516-2.784a4.635 4.635 0 011.09-1.675 4.635 4.635 0 011.675-1.09c.528-.206 1.322-.449 2.784-.516 1.582-.073 2.057-.088 6.062-.088zM15 0c-4.074 0-4.584.017-6.184.09-1.597.073-2.687.327-3.642.698a7.362 7.362 0 00-2.66 1.732A7.362 7.362 0 00.788 5.18C.417 6.135.163 7.225.09 8.822.017 10.422 0 10.932 0 15.006c0 4.074.017 4.584.09 6.184.073 1.597.327 2.687.698 3.642a7.362 7.362 0 001.732 2.66 7.362 7.362 0 002.66 1.732c.955.371 2.045.625 3.642.698 1.6.073 2.11.09 6.184.09s4.584-.017 6.184-.09c1.597-.073 2.687-.327 3.642-.698a7.362 7.362 0 002.66-1.732 7.362 7.362 0 001.732-2.66c.371-.955.625-2.045.698-3.642.073-1.6.09-2.11.09-6.184s-.017-4.584-.09-6.184c-.073-1.597-.327-2.687-.698-3.642a7.362 7.362 0 00-1.732-2.66 7.362 7.362 0 00-2.66-1.732c-.955-.371-2.045-.625-3.642-.698C19.584.017 19.074 0 15 0z" fill="#909090"/>
  <path d="M15 7.297a7.703 7.703 0 100 15.406 7.703 7.703 0 000-15.406zm0 12.703a5 5 0 110-10 5 5 0 010 10zM23.007 5.497a1.8 1.8 0 100 3.6 1.8 1.8 0 000-3.6z" fill="#909090"/>
</svg>
