<svg xmlns="http://www.w3.org/2000/svg" width="50.707" height="71.225" viewBox="0 0 50.707 71.225">
  <g id="Group_14" data-name="Group 14" transform="translate(-1085.975 -1519.526)">
    <path id="Path_11" data-name="Path 11" d="M71.669,44.955v8.736L60.379,61.136,49.087,68.581,37.8,61.136,26.5,53.691V44.955a11.428,11.428,0,0,1,5.137-9.54L41.886,28.66a13.084,13.084,0,0,1,14.4,0l10.245,6.755A11.428,11.428,0,0,1,71.669,44.955Z" transform="translate(1062.242 1495.271)" fill="none" stroke="#e6c46c" stroke-linecap="round" stroke-linejoin="round" stroke-width="4"/>
    <path id="Path_12" data-name="Path 12" d="M71.666,376.318v9.92a9.229,9.229,0,0,1-4.149,7.7L49.083,406.1,30.649,393.943a9.229,9.229,0,0,1-4.149-7.7v-9.92" transform="translate(1062.246 1172.644)" fill="none" stroke="#e6c46c" stroke-linecap="round" stroke-linejoin="round" stroke-width="4"/>
    <path id="Path_13" data-name="Path 13" d="M26.5,376.318l11.292,7.445,11.291,7.445,11.291-7.445,11.291-7.445" transform="translate(1062.246 1172.645)" fill="none" stroke="#e6c46c" stroke-linecap="round" stroke-linejoin="round" stroke-width="4"/>
    <path id="Path_14" data-name="Path 14" d="M43.244,195.8l9.99,6.587,11.292,7.445,11.292-7.445,9.99-6.587" transform="translate(1046.803 1339.133)" fill="none" stroke="#e6c46c" stroke-linecap="round" stroke-linejoin="round" stroke-width="4"/>
    <path id="Path_15" data-name="Path 15" d="M317.044,26.5V93.479" transform="translate(794.285 1495.271)" fill="none" stroke="#e6c46c" stroke-linecap="round" stroke-linejoin="round" stroke-width="4"/>
  </g>
</svg>
