<svg xmlns="http://www.w3.org/2000/svg" xmlns:xlink="http://www.w3.org/1999/xlink" width="87.865" height="87.865" viewBox="0 0 87.865 87.865">
  <defs>
    <clipPath id="clip-path">
      <rect id="Rectangle_16" data-name="Rectangle 16" width="61.903" height="62.357" fill="none" stroke="#e6c46c" stroke-width="4"/>
    </clipPath>
  </defs>
  <g id="Group_30" data-name="Group 30" transform="translate(-14.142 29.63) rotate(-45)">
    <g id="Group_29" data-name="Group 29" transform="translate(0 20)" clip-path="url(#clip-path)">
      <path id="Path_26" data-name="Path 26" d="M60.305,31.427H2.541a28.882,28.882,0,1,1,57.764,0H51.844" transform="translate(-0.472 -0.471)" fill="none" stroke="#e6c46c" stroke-linecap="round" stroke-linejoin="round" stroke-width="4"/>
      <path id="Path_27" data-name="Path 27" d="M33.439,35.13H17.08a3.664,3.664,0,0,1-3.565-4.477,20.3,20.3,0,0,1,2.694-6.482,3.655,3.655,0,0,1,5.663-.608Z" transform="translate(-2.492 -4.174)" fill="none" stroke="#e6c46c" stroke-linecap="round" stroke-linejoin="round" stroke-width="4"/>
      <path id="Path_28" data-name="Path 28" d="M35.12,17.081V33.448L23.551,21.878a3.655,3.655,0,0,1,.608-5.662,20.307,20.307,0,0,1,6.484-2.7A3.664,3.664,0,0,1,35.12,17.081Z" transform="translate(-4.172 -2.492)" fill="none" stroke="#e6c46c" stroke-linecap="round" stroke-linejoin="round" stroke-width="4"/>
      <path id="Path_29" data-name="Path 29" d="M49.572,21.877,38,33.447V17.08a3.665,3.665,0,0,1,4.477-3.565,20.315,20.315,0,0,1,6.487,2.7A3.656,3.656,0,0,1,49.572,21.877Z" transform="translate(-7.053 -2.491)" fill="none" stroke="#e6c46c" stroke-linecap="round" stroke-linejoin="round" stroke-width="4"/>
      <path id="Path_30" data-name="Path 30" d="M54.369,35.13H38l11.57-11.57a3.655,3.655,0,0,1,5.662.607,20.262,20.262,0,0,1,2.7,6.487A3.664,3.664,0,0,1,54.369,35.13Z" transform="translate(-7.054 -4.174)" fill="none" stroke="#e6c46c" stroke-linecap="round" stroke-linejoin="round" stroke-width="4"/>
      <path id="Path_31" data-name="Path 31" d="M29.14,66.034h0a9.482,9.482,0,0,1,0-13.41l6.7-6.7,6.7,6.7a9.482,9.482,0,1,1-13.41,13.41Z" transform="translate(46.169 -17.067) rotate(45)" fill="none" stroke="#e6c46c" stroke-linecap="round" stroke-linejoin="round" stroke-width="4"/>
    </g>
  </g>
</svg>
