<svg xmlns="http://www.w3.org/2000/svg" width="30" height="30" viewBox="0 0 30 30" fill="none">
  <path d="M25.548 4.388A14.906 14.906 0 0015.063 0C6.84 0 .2 6.64.196 14.865c-.001 2.62.683 5.178 1.985 7.431L0 30l7.882-2.068a14.856 14.856 0 007.104 1.81h.006c8.221 0 14.862-6.642 14.866-14.866a14.774 14.774 0 00-4.31-10.488zM15.063 27.228h-.005a12.343 12.343 0 01-6.289-1.722l-.451-.268-4.677 1.227 1.247-4.56-.295-.469a12.325 12.325 0 01-1.887-6.572c.004-6.813 5.545-12.354 12.362-12.354a12.289 12.289 0 018.736 3.623 12.282 12.282 0 013.618 8.743c-.004 6.813-5.545 12.354-12.359 12.354zm6.779-9.255c-.371-.186-2.197-1.084-2.538-1.208-.34-.124-.588-.186-.836.186-.248.372-.96 1.208-1.177 1.456-.217.248-.434.279-.805.093-.371-.186-1.568-.578-2.988-1.844-1.104-.985-1.85-2.202-2.067-2.573-.217-.372-.023-.573.163-.758.167-.166.371-.434.557-.65.186-.217.248-.372.372-.62.124-.248.062-.465-.031-.651-.093-.186-.836-2.015-1.145-2.76-.302-.724-.61-.626-.836-.638-.217-.011-.465-.013-.713-.013-.248 0-.65.093-.99.465-.341.372-1.301 1.27-1.301 3.099s1.332 3.595 1.518 3.843c.186.248 2.62 3.999 6.348 5.607.887.383 1.577.612 2.116.783.891.285 1.701.245 2.34.148.714-.106 2.197-.898 2.508-1.766.31-.868.31-1.611.217-1.767-.093-.155-.341-.248-.712-.434z" fill="currentColor"/>
</svg>
